PathFileType	4	(X/Y/Z)	C:/Users/beibeiliu/ov580/test_trc/User1\sequence.36_training_dense_left.trc
DataRate	CameraRate	NumFrames	NumMarkers	Units	OrigDataRate	OrigDataStartFrame	OrigNumFrames
120	120	21	19	mm	120	124	246
Frame#	Time	ThumbCMC			ThumbMCP			ThumbIP			ThumbTip			IndexMCP			IndexPIP			IndexTip			MiddleMCP			MiddlePIP			MiddleTip			RingMCP			RingPIP			RingTip			PinkyMCP			PinkyPIP			PinkyTip			BackHand1			BackHand2			BackHand3	
		X0	Y0	Z0	X1	Y1	Z1	X2	Y2	Z2	X3	Y3	Z3	X4	Y4	Z4	X5	Y5	Z5	X6	Y6	Z6	X7	Y7	Z7	X8	Y8	Z8	X9	Y9	Z9	X10	Y10	Z10	X11	Y11	Z11	X12	Y12	Z12	X13	Y13	Z13	X14	Y14	Z14	X15	Y15	Z15	X16	Y16	Z16	X17	Y17	Z17	X18	Y18	Z18	
123	1.025	-131.306	25.4392	41.2592	-105.611	31.034	16.6403	-91.9841	30.2775	-7.00551	-73.7738	26.9832	-24.7628	-122.288	5.99562	-37.0364	-88.1024	-2.11613	-40.2539	-68.9181	0.632821	-10.7159	-118.86	-21.7267	-37.7254	-84.0015	-22.8214	-32.5314	-70.2621	-13.5952	1.19904	-116.651	-41.9969	-25.6811	-80.9726	-39.6189	-17.2924	-75.1786	-29.3706	14.2366	-117.316	-61.4438	-9.19147	-89.4279	-49.411	-5.18254	-84.6669	-32.0579	19.3258	-160.069	-40.8348	21.5651	-166.567	-33.7601	52.8138	-164.352	-4.10281	35.1043	
124	1.03333	-130.279	23.0082	41.3218	-103.906	26.9452	19.5947	-87.7036	32.0819	-5.55684	-71.2852	25.8081	-22.481	-121.874	2.66032	-36.452	-90.4133	-3.76341	-40.629	-69.0577	-2.70401	-12.4054	-118.971	-20.2579	-37.2696	-82.001	-22.3469	-31.4475	-69.8376	-14.6892	2.51049	-114.73	-44.4545	-25.3436	-81.4746	-38.5596	-19.4744	-75.2331	-26.6332	14.902	-115.067	-63.74	-7.71261	-87.608	-49.3429	-2.82218	-86.6893	-29.2011	22.0132	-159.615	-37.4677	17.4238	-166.98	-35.9743	55.7644	-161.604	-2.9062	35.1734	
125	1.04167	-130.101	23.6342	41.675	-101.361	29.3628	22.9685	-85.5837	31.4331	-0.998901	-69.2734	26.155	-21.0698	-122.636	4.99289	-36.2782	-89.723	0.182892	-42.6131	-68.1412	-2.1698	-12.9853	-114.766	-21.4155	-38.697	-81.5664	-22.1552	-31.305	-70.2643	-16.3201	5.35443	-112.524	-45.1474	-26.192	-78.0492	-35.1063	-16.3164	-73.7614	-29.9216	15.8389	-114.305	-62.6976	-7.99522	-86.4456	-49.0271	-3.9954	-85.2125	-30.412	21.4698	-158.79	-40.9967	17.9577	-166.456	-35.939	51.9734	-161.787	-2.82666	33.4535	
126	1.05	-128.67	23.78	41.5268	-102.049	26.7717	23.4444	-84.0859	32.2754	-3.5179	-67.2688	26.7965	-21.068	-118.741	5.06432	-39.6919	-88.4592	0.87151	-42.373	-67.6914	-2.58322	-10.649	-119.072	-23.5199	-36.2938	-83.5099	-18.9291	-35.3999	-68.829	-13.4441	0.707823	-107.844	-44.6224	-27.4189	-79.291	-37.0904	-16.7839	-73.8334	-28.2954	12.9427	-112.932	-64.3423	-8.80624	-87.5556	-49.2464	-7.10557	-86.4726	-30.0984	20.8595	-159.23	-39.8899	15.7672	-163.742	-35.8909	55.9804	-163.043	-5.37404	30.6939	
127	1.05833	-129.237	23.9262	41.9139	-98.4593	30.6487	23.7796	-83.8282	29.6399	-0.246313	-63.6322	28.3005	-22.9689	-118.525	2.59862	-38.6457	-88.5091	0.812066	-42.107	-66.5112	-1.49137	-11.1546	-113.985	-19.6909	-38.7823	-80.5407	-19.4496	-32.2004	-68.5876	-14.4214	4.65179	-108.6	-42.6323	-27.1643	-78.8081	-38.4702	-16.806	-74.4557	-24.1348	15.9356	-111.371	-63.9319	-8.95024	-83.5546	-52.142	-4.03181	-86.8049	-28.8059	21.1952	-158.282	-38.1918	20.4486	-165.449	-36.0921	51.1618	-162.269	-6.19609	29.9698	
128	1.06667	-128.515	23.1707	42.7336	-98.027	29.2334	24.07	-81.7924	30.2986	-0.281764	-62.8593	29.4041	-16.7174	-120.196	2.60818	-36.6494	-85.9669	-0.663779	-40.8105	-67.4054	1.72818	-16.0409	-112.493	-22.4974	-37.7503	-78.9029	-19.0282	-32.7454	-68.5722	-16.4842	4.2897	-106.506	-43.6072	-27.1726	-78.3231	-38.2619	-17.6185	-74.7261	-25.6217	16.8619	-113.286	-61.1359	-8.64113	-82.975	-50.6542	-2.46869	-89.2358	-26.7474	22.4132	-156.586	-39.5035	17.8628	-165.428	-36.9085	54.151	-162.254	-2.72973	33.6121	
129	1.075	-127.975	24.3381	42.4773	-98.1993	28.4577	23.512	-81.652	31.7656	-2.26899	-65.4876	29.7652	-15.1758	-120.141	7.34194	-35.6864	-83.8408	2.05788	-39.9459	-66.4384	1.978	-15.4206	-114.882	-23.8302	-36.1	-78.8845	-18.7811	-30.9622	-67.6972	-15.5468	4.87028	-107.117	-43.1847	-25.9098	-76.816	-38.1405	-15.6354	-74.3897	-27.2911	16.428	-111.515	-62.8784	-8.90695	-84.3715	-47.9383	-3.40662	-88.1752	-25.5376	22.4762	-157.417	-38.4811	18.5446	-165.315	-33.9799	53.1817	-160.547	-0.832301	31.1362	
130	1.08333	-128.342	24.2158	41.1177	-99.0798	31.3851	20.8143	-82.1433	33.2583	-1.05295	-64.4671	33.4887	-17.8865	-119.654	8.80624	-35.1656	-84.9105	0.979811	-40.3177	-65.6331	0.271327	-10.6494	-113.97	-18.9421	-36.6629	-79.6745	-18.6615	-31.6275	-68.2948	-13.8354	4.0638	-111.314	-43.3931	-24.94	-76.0122	-32.4522	-14.2203	-74.3456	-24.7266	18.8694	-110.129	-58.7581	-9.65644	-85.7694	-46.9279	-3.35896	-87.7465	-27.5367	23.1905	-158.055	-39.4848	15.3927	-163.043	-35.1816	52.995	-161.209	-1.06529	34.3946	
131	1.09167	-128.354	22.5778	44.5668	-100.293	29.9788	22.9215	-84.5162	34.369	1.67683	-67.0677	31.6488	-17.9009	-117.094	7.61686	-35.8972	-87.3113	2.30657	-40.773	-67.2061	-2.32612	-12.116	-112.853	-19.2554	-37.3178	-78.9247	-17.993	-30.004	-68.8	-15.3935	8.47204	-109.15	-41.6073	-24.5272	-75.8902	-36.8819	-13.8464	-73.166	-29.5644	17.0892	-112.35	-56.5222	-9.57256	-85.0839	-48.6059	-1.59266	-85.6666	-27.7256	26.7374	-157.515	-39.9363	19.0701	-165.528	-32.8209	52.9947	-160.87	-2.18899	35.4477	
132	1.1	-129.44	24.0183	43.0657	-100.783	34.3893	21.4857	-87.8654	36.2271	-2.43211	-71.0303	34.0468	-18.9893	-117.626	6.17155	-34.9008	-85.021	-0.40148	-38.6409	-65.9588	-0.643247	-11.5168	-111.557	-18.5801	-36.8992	-78.3363	-19.5302	-28.2828	-68.9654	-14.9688	10.6664	-108.146	-36.9443	-26.1271	-75.832	-35.5533	-12.9225	-72.0604	-25.5199	16.3369	-112.193	-55.9886	-9.82891	-84.9549	-46.1102	-1.12136	-86.8099	-28.4388	25.7682	-155.756	-36.3495	16.3863	-165.045	-32.1069	56.3385	-161.327	0.574938	29.7297	
133	1.10833	-129.239	27.2444	42.5207	-103.816	35.2272	23.7447	-91.0884	35.248	-2.10892	-74.1518	34.3986	-25.8199	-118.218	8.83627	-34.4486	-85.4654	0.704333	-36.9979	-65.7655	0.632879	-7.62187	-113.107	-18.5563	-35.7961	-78.9071	-14.6765	-29.2761	-68.0532	-15.9838	7.7281	-111.408	-42.4675	-24.8296	-78.1281	-33.7965	-16.0809	-72.7883	-24.8849	17.7664	-111.714	-59.7	-8.94352	-83.8013	-49.7699	-2.59455	-85.0261	-28.5923	21.1674	-158.788	-36.3028	20.3186	-165.243	-33.3578	54.9233	-161.877	-1.74405	33.3503	
134	1.11667	-129.552	24.4507	45.8231	-107.063	31.2993	18.4601	-95.9777	34.1171	-5.81481	-80.6735	33.3152	-26.2007	-118.52	7.57158	-34.7014	-82.3429	6.00061	-35.7683	-68.2316	-0.909552	-7.56375	-113.429	-15.8927	-36.0154	-80.3188	-17.3006	-30.4727	-68.7586	-10.7787	9.13621	-110.816	-41.3966	-25.5312	-77.3087	-33.326	-15.8103	-72.5762	-27.8729	18.938	-109.459	-59.5153	-11.735	-84.8858	-44.9109	-3.33421	-85.8263	-26.48	21.5653	-155.934	-37.6876	16.0794	-165.995	-32.1967	50.2166	-162.736	-0.0931783	30.7524	
135	1.125	-131.21	24.6073	47.8012	-109.551	33.5902	21.2923	-100.384	35.0501	-8.11782	-86.0251	37.4138	-29.6043	-115.268	6.87005	-36.4609	-83.4536	0.538205	-34.3836	-69.0414	-1.79989	-3.99501	-114.125	-16.8868	-35.2983	-81.2905	-15.0887	-29.3772	-70.5959	-15.6717	12.9012	-109.312	-36.3194	-26.2486	-76.2346	-35.5023	-13.6267	-72.931	-25.9938	17.5327	-115.177	-57.3374	-9.65769	-84.6975	-46.9311	-3.16275	-83.653	-28.8129	22.4718	-158.102	-36.0585	17.6063	-164.487	-37.7395	50.2591	-162.345	-0.905905	31.6956	
136	1.13333	-132.236	20.6829	42.7385	-113.592	33.0509	16.4826	-105.342	37.783	-6.52716	-94.1264	38.869	-32.4375	-115.699	6.5131	-36.8058	-84.8765	-0.682874	-35.3512	-70.3767	-2.54108	-5.22987	-113.877	-17.7359	-35.8249	-79.7723	-15.4674	-27.2515	-70.9292	-10.8675	11.6858	-111.671	-40.3991	-24.778	-80.2928	-35.7594	-16.7006	-74.0306	-28.3527	19.0804	-110.626	-58.2518	-11.8768	-84.8653	-50.2938	-2.9924	-86.3329	-28.0175	25.6198	-158.01	-35.6336	19.7863	-165.462	-37.245	51.8432	-162.726	-3.69339	31.1407	
137	1.14167	-134.557	20.5536	43.3357	-117.595	34.1367	18.7829	-112.952	34.656	-10.8286	-103.533	37.9806	-34.0182	-120.775	6.08902	-35.5834	-84.9607	3.96415	-35.2688	-70.9577	3.55022	-4.01521	-117.697	-18.5257	-33.6319	-79.754	-15.7193	-27.1665	-70.298	-14.8964	10.7992	-112.925	-43.1984	-24.1888	-79.8223	-38.4615	-14.4135	-75.4991	-25.52	19.4549	-112.039	-57.8079	-10.5482	-85.3872	-48.4725	-1.14301	-84.7605	-29.4544	22.2418	-159.306	-37.5175	19.2252	-163.883	-36.42	53.8147	-164.142	-1.40629	30.7803	
138	1.15	-134.087	20.955	46.3489	-120.886	32.1308	18.5178	-118.927	37.4768	-14.0599	-110.647	41.5052	-34.2475	-119.436	4.81037	-36.8613	-84.9256	-0.540918	-33.9519	-72.5168	3.36508	-0.778772	-114.539	-22.25	-35.6783	-80.314	-17.2316	-26.2287	-69.7568	-13.5137	9.35365	-113.839	-42.085	-24.4517	-80.0759	-34.9504	-14.4864	-75.6963	-29.744	17.8137	-111.372	-55.8858	-11.055	-84.8109	-48.2383	-0.858589	-85.3567	-29.4693	21.9861	-159.86	-41.424	15.8859	-164.204	-35.6941	56.022	-163.821	-2.04129	29.4172	
139	1.15833	-135.875	23.9598	43.0195	-125.133	34.0433	15.0295	-123.556	35.0482	-13.1889	-117.66	39.5473	-32.2826	-119.014	5.8611	-37.4809	-84.8289	1.73857	-34.1677	-73.8325	-0.244966	-3.9452	-113.285	-25.1463	-36.1372	-83.0919	-19.9145	-29.3186	-69.665	-12.4578	6.78175	-110.662	-43.0665	-23.8422	-78.0812	-36.3897	-11.4251	-76.7903	-24.8478	19.1789	-115.404	-60.103	-8.57442	-86.2781	-50.5671	-2.73881	-87.3326	-31.1509	25.479	-158.744	-39.4967	20.7958	-165.219	-37.6556	51.0258	-163.515	-5.40102	32.7535	
140	1.16667	-137.487	21.6737	43.6075	-127.167	35.152	17.7171	-126.745	37.6867	-11.7622	-122.133	43.6431	-35.6178	-119.734	0.740766	-37.0543	-85.2524	-2.69219	-34.4375	-73.5404	-2.51692	-3.44564	-117.611	-23.0315	-34.1205	-82.6012	-21.8947	-28.3379	-70.552	-12.6275	9.35099	-112.324	-42.5404	-24.7049	-78.1047	-34.2145	-12.3807	-76.5605	-23.8574	17.833	-113.24	-60.6634	-8.97323	-86.5266	-50.4351	-2.87045	-86.9248	-29.7115	19.4675	-158.404	-40.3148	19.9413	-164.158	-35.9348	56.6683	-165.561	-2.40387	29.706	
141	1.175	-138.093	23.6589	44.9522	-129.513	32.9846	17.4611	-130.186	41.3865	-9.94813	-125.167	43.7083	-30.1821	-122.93	3.07965	-35.9247	-90.7046	-2.20785	-37.76	-72.6284	1.25274	-4.79315	-119.295	-26.1441	-34.4327	-81.0982	-18.2493	-27.8192	-69.4372	-12.5577	6.01163	-110.439	-46.6552	-24.3601	-80.7016	-39.313	-14.0088	-74.6706	-29.7276	15.0344	-111.309	-63.1139	-10.394	-87.1669	-52.5469	-5.37221	-84.5967	-27.7523	22.06	-158.357	-41.654	17.0719	-165.531	-38.4289	52.9308	-163.413	-6.23713	32.2443	
142	1.18333	-137.813	25.0145	46.9906	-130.762	33.8706	17.7379	-131.216	39.801	-10.5176	-127.18	43.2763	-32.3595	-124.875	1.16915	-37.0626	-90.5776	-5.72782	-37.8609	-73.8267	-3.7532	-9.10118	-117.828	-23.9113	-35.0902	-83.8753	-23.3506	-29.6403	-70.2871	-16.6141	8.05564	-114.849	-44.5305	-24.4315	-81.5575	-40.518	-15.6208	-74.7991	-24.061	15.6841	-112.02	-64.723	-9.84015	-88.6107	-50.609	-6.16994	-80.9764	-31.3335	19.7918	-159.474	-41.0467	19.5854	-165.781	-40.602	53.698	-164.705	-7.61107	33.9186	
143	1.19167	-139.543	23.6797	45.093	-131.423	32.0805	16.854	-132.096	39.2318	-10.0352	-128.422	43.2045	-33.1895	-124.668	0.55497	-36.7436	-92.2195	-4.96989	-39.8462	-73.3637	-2.28177	-10.4274	-117.417	-28.1862	-35.724	-83.3291	-24.2748	-28.785	-69.2969	-13.6789	5.38373	-116.058	-46.6909	-24.1796	-79.9875	-40.2996	-14.8432	-72.9664	-29.1061	10.8608	-116.819	-65.3316	-7.35494	-89.0289	-51.2827	-6.23642	-82.7105	-30.731	21.6676	-161.402	-40.0802	18.0688	-165.012	-40.4744	55.3247	-163.44	-8.18205	33.7797	
